<svg width="49" height="48" viewBox="0 0 49 48" fill="none" xmlns="http://www.w3.org/2000/svg">
<path d="M8.5 44C7.93333 44 7.45833 43.8083 7.075 43.425C6.69167 43.0417 6.5 42.5667 6.5 42V32C6.5 30.9 6.89167 29.9583 7.675 29.175C8.45833 28.3917 9.4 28 10.5 28V20C10.5 18.9 10.8917 17.9583 11.675 17.175C12.4583 16.3917 13.4 16 14.5 16H22.5V13.1C21.9 12.7 21.4167 12.2167 21.05 11.65C20.6833 11.0833 20.5 10.4 20.5 9.6C20.5 9.1 20.6 8.60833 20.8 8.125C21 7.64167 21.3 7.2 21.7 6.8L24.5 4L27.3 6.8C27.7 7.2 28 7.64167 28.2 8.125C28.4 8.60833 28.5 9.1 28.5 9.6C28.5 10.4 28.3167 11.0833 27.95 11.65C27.5833 12.2167 27.1 12.7 26.5 13.1V16H34.5C35.6 16 36.5417 16.3917 37.325 17.175C38.1083 17.9583 38.5 18.9 38.5 20V28C39.6 28 40.5417 28.3917 41.325 29.175C42.1083 29.9583 42.5 30.9 42.5 32V42C42.5 42.5667 42.3083 43.0417 41.925 43.425C41.5417 43.8083 41.0667 44 40.5 44H8.5ZM14.5 28H34.5V20H14.5V28ZM10.5 40H38.5V32H10.5V40Z" fill="black"/>
</svg>
