<svg width="49" height="48" viewBox="0 0 49 48" fill="none" xmlns="http://www.w3.org/2000/svg">
<path d="M23.3 18H39.3C38.4 15.7 37.025 13.725 35.175 12.075C33.325 10.425 31.2 9.26667 28.8 8.6L23.3 18ZM18.7 22L26.7 8.2C26.3333 8.13333 25.9667 8.08333 25.6 8.05C25.2333 8.01667 24.8667 8 24.5 8C22.3 8 20.25 8.41667 18.35 9.25C16.45 10.0833 14.7667 11.2 13.3 12.6L18.7 22ZM9 28H19.9L11.9 14.2C10.8333 15.5667 10 17.075 9.4 18.725C8.8 20.375 8.5 22.1333 8.5 24C8.5 24.7 8.54167 25.375 8.625 26.025C8.70833 26.675 8.83333 27.3333 9 28ZM20.2 39.4L25.6 30H9.7C10.6 32.3 11.975 34.275 13.825 35.925C15.675 37.575 17.8 38.7333 20.2 39.4ZM24.5 40C26.7 40 28.75 39.5833 30.65 38.75C32.55 37.9167 34.2333 36.8 35.7 35.4L30.3 26L22.3 39.8C22.6667 39.8667 23.025 39.9167 23.375 39.95C23.725 39.9833 24.1 40 24.5 40ZM37.1 33.8C38.1667 32.4333 39 30.925 39.6 29.275C40.2 27.625 40.5 25.8667 40.5 24C40.5 23.3 40.4583 22.625 40.375 21.975C40.2917 21.325 40.1667 20.6667 40 20H29.1L37.1 33.8ZM24.5 44C21.7667 44 19.1833 43.475 16.75 42.425C14.3167 41.375 12.1917 39.9417 10.375 38.125C8.55833 36.3083 7.125 34.1833 6.075 31.75C5.025 29.3167 4.5 26.7333 4.5 24C4.5 21.2333 5.025 18.6417 6.075 16.225C7.125 13.8083 8.55833 11.6917 10.375 9.875C12.1917 8.05833 14.3167 6.625 16.75 5.575C19.1833 4.525 21.7667 4 24.5 4C27.2667 4 29.8583 4.525 32.275 5.575C34.6917 6.625 36.8083 8.05833 38.625 9.875C40.4417 11.6917 41.875 13.8083 42.925 16.225C43.975 18.6417 44.5 21.2333 44.5 24C44.5 26.7333 43.975 29.3167 42.925 31.75C41.875 34.1833 40.4417 36.3083 38.625 38.125C36.8083 39.9417 34.6917 41.375 32.275 42.425C29.8583 43.475 27.2667 44 24.5 44Z" fill="black"/>
</svg>
