<svg width="49" height="48" viewBox="0 0 49 48" fill="none" xmlns="http://www.w3.org/2000/svg">
<path d="M6.5 40C5.93333 40 5.45833 39.8083 5.075 39.425C4.69167 39.0417 4.5 38.5667 4.5 38C4.5 37.6667 4.56667 37.3583 4.7 37.075C4.83333 36.7917 5.03333 36.5667 5.3 36.4L22.5 23.5V20C22.5 19.4333 22.7 18.9583 23.1 18.575C23.5 18.1917 23.9833 18 24.55 18C25.3833 18 26.0833 17.7 26.65 17.1C27.2167 16.5 27.5 15.7833 27.5 14.95C27.5 14.1167 27.2083 13.4167 26.625 12.85C26.0417 12.2833 25.3333 12 24.5 12C23.6667 12 22.9583 12.2917 22.375 12.875C21.7917 13.4583 21.5 14.1667 21.5 15H17.5C17.5 13.0667 18.1833 11.4167 19.55 10.05C20.9167 8.68333 22.5667 8 24.5 8C26.4333 8 28.0833 8.675 29.45 10.025C30.8167 11.375 31.5 13.0167 31.5 14.95C31.5 16.5167 31.0417 17.9167 30.125 19.15C29.2083 20.3833 28 21.2333 26.5 21.7V23.5L43.7 36.4C43.9667 36.5667 44.1667 36.7917 44.3 37.075C44.4333 37.3583 44.5 37.6667 44.5 38C44.5 38.5667 44.3083 39.0417 43.925 39.425C43.5417 39.8083 43.0667 40 42.5 40H6.5ZM12.5 36H36.5L24.5 27L12.5 36Z" fill="black"/>
</svg>
