<svg width="48" height="48" viewBox="0 0 48 48" fill="none" xmlns="http://www.w3.org/2000/svg">
<path d="M9.4501 40C7.4501 40 5.74176 39.2833 4.3251 37.85C2.90843 36.4167 2.16676 34.6833 2.1001 32.65C2.1001 32.35 2.11676 32.05 2.1501 31.75C2.18343 31.45 2.23343 31.15 2.3001 30.85L6.5001 14.05C6.96676 12.25 7.91676 10.7917 9.3501 9.675C10.7834 8.55833 12.4168 8 14.2501 8H33.7501C35.5834 8 37.2168 8.55833 38.6501 9.675C40.0834 10.7917 41.0334 12.25 41.5001 14.05L45.7001 30.85C45.7668 31.15 45.8251 31.4583 45.8751 31.775C45.9251 32.0917 45.9501 32.4 45.9501 32.7C45.9501 34.7333 45.2251 36.4583 43.7751 37.875C42.3251 39.2917 40.5834 40 38.5501 40C37.1501 40 35.8501 39.6333 34.6501 38.9C33.4501 38.1667 32.5501 37.1667 31.9501 35.9L30.5501 33C30.3834 32.6667 30.1334 32.4167 29.8001 32.25C29.4668 32.0833 29.1168 32 28.7501 32H19.2501C18.8834 32 18.5334 32.0833 18.2001 32.25C17.8668 32.4167 17.6168 32.6667 17.4501 33L16.0501 35.9C15.4501 37.1667 14.5501 38.1667 13.3501 38.9C12.1501 39.6333 10.8501 40 9.4501 40ZM9.6001 36C10.2334 36 10.8084 35.8333 11.3251 35.5C11.8418 35.1667 12.2334 34.7167 12.5001 34.15L13.9001 31.3C14.4001 30.2667 15.1334 29.4583 16.1001 28.875C17.0668 28.2917 18.1168 28 19.2501 28H28.7501C29.8834 28 30.9334 28.3 31.9001 28.9C32.8668 29.5 33.6168 30.3 34.1501 31.3L35.5501 34.15C35.8168 34.7167 36.2084 35.1667 36.7251 35.5C37.2418 35.8333 37.8168 36 38.4501 36C39.3834 36 40.1834 35.6917 40.8501 35.075C41.5168 34.4583 41.8668 33.6833 41.9001 32.75C41.9001 32.7833 41.8668 32.4667 41.8001 31.8L37.6001 15.05C37.3668 14.15 36.9001 13.4167 36.2001 12.85C35.5001 12.2833 34.6834 12 33.7501 12H14.2501C13.3168 12 12.4918 12.2833 11.7751 12.85C11.0584 13.4167 10.6001 14.15 10.4001 15.05L6.2001 31.8C6.13343 32 6.1001 32.3 6.1001 32.7C6.1001 33.6333 6.44176 34.4167 7.1251 35.05C7.80843 35.6833 8.63343 36 9.6001 36ZM27.0001 22C27.5668 22 28.0418 21.8083 28.4251 21.425C28.8084 21.0417 29.0001 20.5667 29.0001 20C29.0001 19.4333 28.8084 18.9583 28.4251 18.575C28.0418 18.1917 27.5668 18 27.0001 18C26.4334 18 25.9584 18.1917 25.5751 18.575C25.1918 18.9583 25.0001 19.4333 25.0001 20C25.0001 20.5667 25.1918 21.0417 25.5751 21.425C25.9584 21.8083 26.4334 22 27.0001 22ZM31.0001 18C31.5668 18 32.0418 17.8083 32.4251 17.425C32.8084 17.0417 33.0001 16.5667 33.0001 16C33.0001 15.4333 32.8084 14.9583 32.4251 14.575C32.0418 14.1917 31.5668 14 31.0001 14C30.4334 14 29.9584 14.1917 29.5751 14.575C29.1918 14.9583 29.0001 15.4333 29.0001 16C29.0001 16.5667 29.1918 17.0417 29.5751 17.425C29.9584 17.8083 30.4334 18 31.0001 18ZM31.0001 26C31.5668 26 32.0418 25.8083 32.4251 25.425C32.8084 25.0417 33.0001 24.5667 33.0001 24C33.0001 23.4333 32.8084 22.9583 32.4251 22.575C32.0418 22.1917 31.5668 22 31.0001 22C30.4334 22 29.9584 22.1917 29.5751 22.575C29.1918 22.9583 29.0001 23.4333 29.0001 24C29.0001 24.5667 29.1918 25.0417 29.5751 25.425C29.9584 25.8083 30.4334 26 31.0001 26ZM35.0001 22C35.5668 22 36.0418 21.8083 36.4251 21.425C36.8084 21.0417 37.0001 20.5667 37.0001 20C37.0001 19.4333 36.8084 18.9583 36.4251 18.575C36.0418 18.1917 35.5668 18 35.0001 18C34.4334 18 33.9584 18.1917 33.5751 18.575C33.1918 18.9583 33.0001 19.4333 33.0001 20C33.0001 20.5667 33.1918 21.0417 33.5751 21.425C33.9584 21.8083 34.4334 22 35.0001 22ZM17.0001 25C17.4334 25 17.7918 24.8583 18.0751 24.575C18.3584 24.2917 18.5001 23.9333 18.5001 23.5V21.5H20.5001C20.9334 21.5 21.2918 21.3583 21.5751 21.075C21.8584 20.7917 22.0001 20.4333 22.0001 20C22.0001 19.5667 21.8584 19.2083 21.5751 18.925C21.2918 18.6417 20.9334 18.5 20.5001 18.5H18.5001V16.5C18.5001 16.0667 18.3584 15.7083 18.0751 15.425C17.7918 15.1417 17.4334 15 17.0001 15C16.5668 15 16.2084 15.1417 15.9251 15.425C15.6418 15.7083 15.5001 16.0667 15.5001 16.5V18.5H13.5001C13.0668 18.5 12.7084 18.6417 12.4251 18.925C12.1418 19.2083 12.0001 19.5667 12.0001 20C12.0001 20.4333 12.1418 20.7917 12.4251 21.075C12.7084 21.3583 13.0668 21.5 13.5001 21.5H15.5001V23.5C15.5001 23.9333 15.6418 24.2917 15.9251 24.575C16.2084 24.8583 16.5668 25 17.0001 25Z" fill="black"/>
</svg>
