<svg width="49" height="48" viewBox="0 0 49 48" fill="none" xmlns="http://www.w3.org/2000/svg">
<path d="M38.2 43.95C37.9333 43.95 37.6833 43.9083 37.45 43.825C37.2167 43.7417 37 43.6 36.8 43.4L26.6 33.2C26.4 33 26.2583 32.7833 26.175 32.55C26.0917 32.3167 26.05 32.0667 26.05 31.8C26.05 31.5333 26.0917 31.2833 26.175 31.05C26.2583 30.8167 26.4 30.6 26.6 30.4L30.85 26.15C31.05 25.95 31.2667 25.8083 31.5 25.725C31.7333 25.6417 31.9833 25.6 32.25 25.6C32.5167 25.6 32.7667 25.6417 33 25.725C33.2333 25.8083 33.45 25.95 33.65 26.15L43.85 36.35C44.05 36.55 44.1917 36.7667 44.275 37C44.3583 37.2333 44.4 37.4833 44.4 37.75C44.4 38.0167 44.3583 38.2667 44.275 38.5C44.1917 38.7333 44.05 38.95 43.85 39.15L39.6 43.4C39.4 43.6 39.1833 43.7417 38.95 43.825C38.7167 43.9083 38.4667 43.95 38.2 43.95ZM38.2 39.2L39.65 37.75L32.3 30.4L30.85 31.85L38.2 39.2ZM10.75 44C10.4833 44 10.225 43.95 9.975 43.85C9.725 43.75 9.5 43.6 9.3 43.4L5.1 39.2C4.9 39 4.75 38.775 4.65 38.525C4.55 38.275 4.5 38.0167 4.5 37.75C4.5 37.4833 4.55 37.2333 4.65 37C4.75 36.7667 4.9 36.55 5.1 36.35L15.7 25.75H19.95L21.65 24.05L13.4 15.8H10.55L4.5 9.75L10.15 4.1L16.2 10.15V13L24.45 21.25L30.25 15.45L28.1 13.3L30.9 10.5H25.25L23.85 9.1L30.95 2L32.35 3.4V9.05L35.15 6.25L42.25 13.35C42.8167 13.9167 43.25 14.5583 43.55 15.275C43.85 15.9917 44 16.75 44 17.55C44 18.35 43.85 19.1167 43.55 19.85C43.25 20.5833 42.8167 21.2333 42.25 21.8L38 17.55L35.2 20.35L33.1 18.25L22.75 28.6V32.8L12.15 43.4C11.95 43.6 11.7333 43.75 11.5 43.85C11.2667 43.95 11.0167 44 10.75 44ZM10.75 39.2L19.25 30.7V29.25H17.8L9.3 37.75L10.75 39.2ZM10.75 39.2L9.3 37.75L10.05 38.45L10.75 39.2Z" fill="black"/>
</svg>
