<svg width="174" height="32" viewBox="0 0 174 32" fill="none" xmlns="http://www.w3.org/2000/svg">
<g clip-path="url(#clip0_955_6476)">
<path d="M4.39051 8.7557C6.81532 8.7557 8.78102 6.79567 8.78102 4.37785C8.78102 1.96003 6.81532 0 4.39051 0C1.9657 0 0 1.96003 0 4.37785C0 6.79567 1.9657 8.7557 4.39051 8.7557Z" fill="white"/>
<path d="M12.4047 32H39.1311C39.2746 32.0002 39.4148 31.9573 39.5335 31.8768C39.6522 31.7964 39.7439 31.6822 39.7965 31.5491C39.8492 31.4159 39.8604 31.2701 39.8287 31.1305C39.797 30.9909 39.7239 30.8641 39.6189 30.7666L12.8751 6.28883C12.7571 6.17886 12.6155 6.09716 12.461 6.04995C12.3066 6.00274 12.1434 5.99126 11.9838 6.01639C11.8242 6.04151 11.6725 6.10257 11.5401 6.19494C11.4078 6.2873 11.2983 6.40853 11.22 6.54942L5.57504 16.3475C5.46304 16.5377 5.39687 16.7513 5.38176 16.9713C5.36664 17.1914 5.40299 17.412 5.48793 17.6157L11.4291 31.3572C11.5108 31.5478 11.6468 31.7102 11.8203 31.8245C11.9937 31.9387 12.1969 31.9997 12.4047 32Z" fill="white"/>
<path d="M48.5918 22.9662V3.35278H52.4074V22.9662H48.5918ZM51.3968 22.9662V19.596H61.4149V22.9662H51.3968Z" fill="white"/>
<path d="M70.5789 23.2443C69.2918 23.2619 68.0232 22.9381 66.9027 22.3062C65.8277 21.7046 64.9319 20.8294 64.3068 19.7699C63.6602 18.6889 63.3284 17.4496 63.3485 16.1911C63.3352 14.9413 63.6602 13.7109 64.2893 12.6298C64.9268 11.589 65.8204 10.7279 66.8853 10.1282C68.0185 9.51236 69.2884 9.1897 70.5789 9.1897C71.8694 9.1897 73.1394 9.51236 74.2725 10.1282C75.3325 10.7284 76.2203 11.5897 76.8511 12.6298C77.4796 13.7152 77.8104 14.9465 77.8104 16.1998C77.8104 17.4532 77.4796 18.6844 76.8511 19.7699C76.2369 20.8318 75.3458 21.7083 74.2725 22.3062C73.1457 22.938 71.8715 23.2616 70.5789 23.2443ZM70.5789 19.7699C71.1893 19.7741 71.7901 19.6183 72.3212 19.3182C72.8456 19.013 73.2741 18.5677 73.5582 18.0326C73.8434 17.4486 73.9867 16.8059 73.9763 16.1564C73.9934 15.5042 73.8435 14.8585 73.5408 14.2802C73.2511 13.7536 72.8236 13.3153 72.3038 13.012C71.7744 12.7058 71.1735 12.544 70.5615 12.5429C69.9495 12.544 69.3486 12.7058 68.8192 13.012C68.2994 13.3153 67.8719 13.7536 67.5822 14.2802C67.2795 14.8585 67.1296 15.5042 67.1467 16.1564C67.1334 16.8082 67.2831 17.453 67.5822 18.0326C67.8664 18.5677 68.2948 19.013 68.8192 19.3182C69.3435 19.6426 69.9447 19.8225 70.5615 19.8393L70.5789 19.7699Z" fill="white"/>
<path d="M87.1134 23.2443C85.8205 23.2641 84.5457 22.9403 83.4198 22.3061C82.3448 21.7045 81.449 20.8293 80.8239 19.7698C80.1773 18.6888 79.8455 17.4496 79.8656 16.1911C79.8523 14.9412 80.1773 13.7108 80.8064 12.6297C81.4456 11.5843 82.3462 10.7223 83.4198 10.1281C84.545 9.49239 85.8203 9.16849 87.1134 9.18997C88.4118 9.17042 89.6922 9.4941 90.8245 10.1281C91.8844 10.7283 92.7722 11.5896 93.403 12.6297C94.0499 13.7042 94.3819 14.938 94.3613 16.1911C94.3785 17.4273 94.0647 18.6457 93.4522 19.7206C92.8396 20.7956 91.9506 21.6881 90.8767 22.3061C89.7307 22.9532 88.4299 23.2774 87.1134 23.2443ZM87.1134 19.7698C87.7238 19.774 88.3246 19.6182 88.8557 19.3181C89.3837 19.0174 89.8133 18.571 90.0927 18.0325C90.3971 17.4766 90.57 16.8586 90.598 16.2258C90.6096 15.5721 90.4537 14.9263 90.145 14.3496C89.8553 13.823 89.4278 13.3847 88.908 13.0814C88.3786 12.7752 87.7777 12.6134 87.1657 12.6123C86.5537 12.6134 85.9528 12.7752 85.4234 13.0814C84.9083 13.3906 84.4821 13.8275 84.1864 14.3496C83.8412 14.9165 83.6491 15.5629 83.6289 16.2258C83.6156 16.8776 83.7653 17.5224 84.0645 18.102C84.3552 18.6462 84.7938 19.0978 85.3299 19.405C85.866 19.7122 86.4781 19.8627 87.096 19.8393L87.1134 19.7698Z" fill="white"/>
<path d="M97.375 22.9663V2.79688H101.051V22.9663H97.375ZM106.086 22.9663L100.86 16.0173L106.086 9.50263H110.32L104.222 16.8685L104.361 15.1313L110.599 23.0184L106.086 22.9663Z" fill="white"/>
<path d="M118.474 23.2443C117.367 23.2998 116.263 23.0726 115.268 22.5841C114.369 22.1011 113.622 21.3796 113.108 20.4994C112.569 19.5464 112.298 18.4661 112.324 17.3724V9.50269H116.018V17.216C116 17.7115 116.095 18.2045 116.296 18.658C116.463 19.0457 116.758 19.3646 117.133 19.5613C117.533 19.7781 117.984 19.886 118.439 19.874C118.762 19.8857 119.084 19.83 119.384 19.7103C119.684 19.5906 119.956 19.4097 120.182 19.1791C120.643 18.6325 120.874 17.9289 120.826 17.216V9.50269H124.485V17.3724C124.518 18.4647 124.253 19.5453 123.718 20.4994C123.23 21.3753 122.506 22.0974 121.628 22.5841C120.646 23.0557 119.563 23.2823 118.474 23.2443Z" fill="white"/>
<path d="M127.569 28.595V9.48537H131.228V12.9599L130.67 16.2954L131.262 19.5614V28.595H127.569ZM135.061 23.2443C134.137 23.2401 133.229 23.0137 132.412 22.5842C131.66 22.2092 131.018 21.6466 130.548 20.9512C130.07 20.2472 129.804 19.4213 129.782 18.5711V13.898C129.804 13.0479 130.07 12.2219 130.548 11.5179C131.017 10.7892 131.665 10.1913 132.43 9.7807C133.236 9.36202 134.135 9.15289 135.043 9.17267C136.23 9.14869 137.398 9.46853 138.406 10.0934C139.395 10.7033 140.201 11.5674 140.74 12.595C141.324 13.703 141.618 14.9399 141.594 16.1911C141.615 17.4366 141.322 18.6673 140.74 19.7698C140.201 20.7975 139.395 21.6616 138.406 22.2715C137.408 22.9114 136.247 23.2494 135.061 23.2443ZM134.416 19.8741C135.028 19.873 135.629 19.7112 136.158 19.405C136.677 19.1057 137.1 18.666 137.378 18.1368C137.671 17.5425 137.82 16.888 137.813 16.2259C137.82 15.5693 137.67 14.9205 137.378 14.3323C137.095 13.8021 136.673 13.3579 136.158 13.0467C135.627 12.7466 135.026 12.5908 134.416 12.595C133.806 12.5908 133.205 12.7466 132.674 13.0467C132.158 13.3579 131.737 13.8021 131.454 14.3323C131.161 14.9205 131.012 15.5693 131.019 16.2259C131.012 16.888 131.161 17.5425 131.454 18.1368C131.731 18.661 132.147 19.0995 132.656 19.405C133.189 19.719 133.797 19.8812 134.416 19.8741Z" fill="white"/>
<path d="M151.037 23.2443C149.749 23.2644 148.48 22.9405 147.361 22.3062C146.279 21.7071 145.377 20.8316 144.747 19.7698C144.101 18.6889 143.769 17.4496 143.789 16.1911C143.768 14.9381 144.1 13.7043 144.747 12.6298C145.377 11.583 146.273 10.7202 147.343 10.1282C148.458 9.49845 149.721 9.17475 151.002 9.19004C152.3 9.1705 153.581 9.49417 154.713 10.1282C155.778 10.7279 156.672 11.589 157.309 12.6298C157.938 13.7109 158.263 14.9412 158.25 16.1911C158.266 17.4469 157.941 18.6836 157.309 19.7698C156.688 20.8325 155.791 21.7087 154.713 22.3062C153.593 22.9381 152.324 23.2619 151.037 23.2443ZM151.037 19.7698C151.647 19.7741 152.248 19.6183 152.779 19.3182C153.307 19.0175 153.737 18.5711 154.016 18.0326C154.315 17.453 154.465 16.8082 154.452 16.1564C154.463 15.5027 154.307 14.8569 153.999 14.2802C153.715 13.7548 153.294 13.3164 152.779 13.012C152.25 12.7058 151.649 12.544 151.037 12.5429C150.425 12.544 149.824 12.7058 149.295 13.012C148.78 13.3164 148.358 13.7548 148.075 14.2802C147.766 14.8569 147.61 15.5027 147.622 16.1564C147.615 16.8095 147.77 17.4543 148.075 18.0326C148.353 18.5665 148.775 19.0119 149.295 19.3182C149.809 19.6368 150.397 19.8164 151.002 19.8393L151.037 19.7698Z" fill="white"/>
<path d="M161.247 22.9663V9.50269H164.905V22.9663H161.247ZM170.341 22.9663V15.2356C170.356 14.8765 170.296 14.5183 170.164 14.1837C170.033 13.8491 169.833 13.5455 169.577 13.2922C169.321 13.0389 169.016 12.8414 168.679 12.7124C168.343 12.5834 167.983 12.5257 167.623 12.5429C167.138 12.5299 166.657 12.6437 166.229 12.8729C165.82 13.0929 165.482 13.4243 165.254 13.8284C165.016 14.2591 164.896 14.7442 164.905 15.2356L163.477 14.5233C163.45 13.5507 163.691 12.5895 164.174 11.7437C164.617 10.9572 165.276 10.3125 166.073 9.88488C166.917 9.42931 167.866 9.20174 168.825 9.22473C169.76 9.20796 170.68 9.46137 171.474 9.95437C172.247 10.4266 172.883 11.0911 173.32 11.8827C173.772 12.6582 174.006 13.54 174 14.4365V22.9663H170.341Z" fill="white"/>
</g>
<defs>
<clipPath id="clip0_955_6476">
<rect width="174" height="32" fill="white"/>
</clipPath>
</defs>
</svg>
