<svg width="174" height="32" viewBox="0 0 174 32" fill="none" xmlns="http://www.w3.org/2000/svg">
<path d="M4.39051 8.7557C6.81532 8.7557 8.78102 6.79567 8.78102 4.37785C8.78102 1.96003 6.81532 0 4.39051 0C1.9657 0 0 1.96003 0 4.37785C0 6.79567 1.9657 8.7557 4.39051 8.7557Z" fill="#5F61A8"/>
<path d="M12.4052 31.9995H39.1316C39.2751 31.9997 39.4153 31.9568 39.534 31.8764C39.6527 31.7959 39.7444 31.6817 39.797 31.5486C39.8497 31.4154 39.8609 31.2696 39.8292 31.13C39.7975 30.9904 39.7244 30.8636 39.6194 30.7661L12.8756 6.28835C12.7576 6.17837 12.616 6.09667 12.4615 6.04946C12.3071 6.00225 12.1438 5.99078 11.9843 6.0159C11.8247 6.04102 11.673 6.10208 11.5406 6.19445C11.4083 6.28681 11.2988 6.40804 11.2205 6.54893L5.57553 16.347C5.46353 16.5372 5.39736 16.7508 5.38225 16.9708C5.36713 17.1909 5.40347 17.4115 5.48842 17.6152L11.4295 31.3567C11.5113 31.5473 11.6473 31.7097 11.8207 31.824C11.9942 31.9382 12.1974 31.9993 12.4052 31.9995Z" fill="#5F61A8"/>
<path d="M48.5918 22.966V3.35254H52.4074V22.966H48.5918ZM51.3968 22.966V19.5958H61.4149V22.966H51.3968Z" fill="#5F61A8"/>
<path d="M70.5789 23.2441C69.2918 23.2616 68.0232 22.9379 66.9027 22.306C65.8277 21.7044 64.9319 20.8291 64.3068 19.7696C63.6602 18.6886 63.3284 17.4494 63.3485 16.1909C63.3352 14.941 63.6602 13.7107 64.2893 12.6295C64.9268 11.5888 65.8204 10.7277 66.8853 10.1279C68.0185 9.51211 69.2884 9.18945 70.5789 9.18945C71.8694 9.18945 73.1394 9.51211 74.2725 10.1279C75.3325 10.7282 76.2203 11.5895 76.8511 12.6295C77.4796 13.715 77.8104 14.9462 77.8104 16.1996C77.8104 17.4529 77.4796 18.6842 76.8511 19.7696C76.2369 20.8316 75.3458 21.708 74.2725 22.306C73.1457 22.9378 71.8715 23.2614 70.5789 23.2441ZM70.5789 19.7696C71.1893 19.7738 71.7901 19.6181 72.3212 19.3179C72.8456 19.0127 73.2741 18.5675 73.5582 18.0324C73.8434 17.4484 73.9867 16.8056 73.9763 16.1562C73.9934 15.504 73.8435 14.8583 73.5408 14.2799C73.2511 13.7534 72.8236 13.3151 72.3038 13.0117C71.7744 12.7055 71.1735 12.5438 70.5615 12.5427C69.9495 12.5438 69.3486 12.7055 68.8192 13.0117C68.2994 13.3151 67.8719 13.7534 67.5822 14.2799C67.2795 14.8583 67.1296 15.504 67.1467 16.1562C67.1334 16.8079 67.2831 17.4527 67.5822 18.0324C67.8664 18.5675 68.2948 19.0127 68.8192 19.3179C69.3435 19.6424 69.9447 19.8223 70.5615 19.8391L70.5789 19.7696Z" fill="#5F61A8"/>
<path d="M87.1129 23.2447C85.8201 23.2645 84.5452 22.9407 83.4193 22.3066C82.3443 21.705 81.4485 20.8298 80.8234 19.7703C80.1768 18.6893 79.845 17.45 79.8651 16.1915C79.8518 14.9417 80.1768 13.7113 80.8059 12.6302C81.4452 11.5848 82.3457 10.7227 83.4193 10.1286C84.5446 9.49288 85.8199 9.16897 87.1129 9.19046C88.4113 9.17091 89.6917 9.49458 90.824 10.1286C91.8839 10.7288 92.7717 11.5901 93.4025 12.6302C94.0494 13.7047 94.3814 14.9385 94.3608 16.1915C94.378 17.4278 94.0642 18.6462 93.4517 19.7211C92.8392 20.7961 91.9501 21.6886 90.8762 22.3066C89.7303 22.9537 88.4295 23.2779 87.1129 23.2447ZM87.1129 19.7703C87.7234 19.7745 88.3242 19.6187 88.8552 19.3186C89.3832 19.0179 89.8128 18.5715 90.0922 18.033C90.3966 17.4771 90.5695 16.8591 90.5975 16.2263C90.6091 15.5726 90.4532 14.9268 90.1445 14.3501C89.8549 13.8235 89.4273 13.3852 88.9075 13.0819C88.3781 12.7757 87.7772 12.6139 87.1652 12.6128C86.5532 12.6139 85.9523 12.7757 85.4229 13.0819C84.9078 13.3911 84.4816 13.828 84.1859 14.3501C83.8407 14.917 83.6486 15.5634 83.6284 16.2263C83.6151 16.8781 83.7648 17.5229 84.064 18.1025C84.3547 18.6467 84.7933 19.0982 85.3294 19.4055C85.8655 19.7127 86.4776 19.8632 87.0955 19.8398L87.1129 19.7703Z" fill="#5F61A8"/>
<path d="M97.375 22.9663V2.79688H101.051V22.9663H97.375ZM106.086 22.9663L100.86 16.0173L106.086 9.50263H110.32L104.222 16.8685L104.361 15.1313L110.599 23.0184L106.086 22.9663Z" fill="#5F61A8"/>
<path d="M118.474 23.2445C117.367 23.3 116.263 23.0728 115.268 22.5844C114.369 22.1013 113.622 21.3798 113.108 20.4997C112.569 19.5466 112.298 18.4663 112.324 17.3726V9.50293H116.018V17.2163C116 17.7117 116.095 18.2047 116.296 18.6582C116.463 19.046 116.758 19.3649 117.133 19.5616C117.533 19.7783 117.984 19.8862 118.439 19.8743C118.762 19.886 119.084 19.8302 119.384 19.7105C119.684 19.5909 119.956 19.4099 120.182 19.1794C120.643 18.6328 120.874 17.9292 120.826 17.2163V9.50293H124.485V17.3726C124.518 18.4649 124.253 19.5456 123.718 20.4997C123.23 21.3755 122.506 22.0976 121.628 22.5844C120.646 23.056 119.563 23.2825 118.474 23.2445Z" fill="#5F61A8"/>
<path d="M127.568 28.5945V9.48489H131.227V12.9594L130.67 16.2949L131.262 19.5609V28.5945H127.568ZM135.06 23.2438C134.137 23.2396 133.228 23.0132 132.412 22.5837C131.66 22.2087 131.017 21.6461 130.548 20.9507C130.069 20.2467 129.803 19.4208 129.781 18.5707V13.8975C129.803 13.0474 130.069 12.2214 130.548 11.5175C131.017 10.7887 131.664 10.1908 132.429 9.78022C133.235 9.36153 134.134 9.1524 135.043 9.17218C136.229 9.1482 137.397 9.46804 138.405 10.0929C139.394 10.7028 140.201 11.5669 140.74 12.5945C141.323 13.7025 141.617 14.9394 141.594 16.1906C141.615 17.4361 141.321 18.6668 140.74 19.7694C140.201 20.797 139.394 21.6611 138.405 22.271C137.408 22.911 136.246 23.2489 135.06 23.2438ZM134.415 19.8736C135.027 19.8725 135.628 19.7107 136.158 19.4045C136.676 19.1052 137.099 18.6655 137.377 18.1364C137.67 17.542 137.819 16.8876 137.813 16.2254C137.819 15.5688 137.67 14.92 137.377 14.3318C137.094 13.8016 136.673 13.3574 136.158 13.0462C135.627 12.7461 135.026 12.5903 134.415 12.5945C133.805 12.5903 133.204 12.7461 132.673 13.0462C132.158 13.3574 131.737 13.8016 131.454 14.3318C131.161 14.92 131.012 15.5688 131.018 16.2254C131.012 16.8876 131.161 17.542 131.454 18.1364C131.731 18.6605 132.147 19.099 132.656 19.4045C133.188 19.7185 133.797 19.8808 134.415 19.8736Z" fill="#5F61A8"/>
<path d="M151.037 23.2446C149.749 23.2646 148.48 22.9407 147.361 22.3065C146.279 21.7073 145.377 20.8319 144.747 19.7701C144.101 18.6891 143.769 17.4499 143.789 16.1914C143.768 14.9383 144.1 13.7045 144.747 12.63C145.377 11.5833 146.273 10.7204 147.343 10.1284C148.458 9.4987 149.721 9.175 151.002 9.19029C152.3 9.17074 153.581 9.49442 154.713 10.1284C155.778 10.7281 156.672 11.5892 157.309 12.63C157.938 13.7112 158.263 14.9415 158.25 16.1914C158.266 17.4471 157.941 18.6839 157.309 19.7701C156.688 20.8328 155.791 21.7089 154.713 22.3065C153.593 22.9384 152.324 23.2621 151.037 23.2446ZM151.037 19.7701C151.647 19.7743 152.248 19.6185 152.779 19.3184C153.307 19.0178 153.737 18.5713 154.016 18.0329C154.315 17.4532 154.465 16.8084 154.452 16.1566C154.463 15.503 154.307 14.8572 153.999 14.2804C153.715 13.7551 153.294 13.3166 152.779 13.0122C152.25 12.706 151.649 12.5442 151.037 12.5432C150.425 12.5442 149.824 12.706 149.295 13.0122C148.78 13.3166 148.358 13.7551 148.075 14.2804C147.766 14.8572 147.61 15.503 147.622 16.1566C147.615 16.8098 147.77 17.4545 148.075 18.0329C148.353 18.5667 148.775 19.0121 149.295 19.3184C149.809 19.6371 150.397 19.8167 151.002 19.8396L151.037 19.7701Z" fill="#5F61A8"/>
<path d="M161.247 22.9668V9.50318H164.906V22.9668H161.247ZM170.342 22.9668V15.2361C170.357 14.877 170.296 14.5188 170.165 14.1842C170.033 13.8496 169.833 13.546 169.578 13.2927C169.322 13.0394 169.016 12.8419 168.68 12.7129C168.343 12.5839 167.984 12.5262 167.624 12.5433C167.138 12.5304 166.658 12.6442 166.23 12.8734C165.821 13.0934 165.482 13.4248 165.254 13.8289C165.017 14.2596 164.897 14.7447 164.906 15.2361L163.477 14.5238C163.451 13.5512 163.692 12.59 164.174 11.7442C164.618 10.9576 165.276 10.313 166.073 9.88537C166.917 9.4298 167.866 9.20222 168.826 9.22522C169.761 9.20845 170.681 9.46186 171.474 9.95486C172.247 10.4271 172.883 11.0916 173.321 11.8832C173.772 12.6587 174.007 13.5405 174 14.4369V22.9668H170.342Z" fill="#5F61A8"/>
</svg>
