<svg width="48" height="48" viewBox="0 0 48 48" fill="none" xmlns="http://www.w3.org/2000/svg">
<path fill-rule="evenodd" clip-rule="evenodd" d="M11.9906 2.9063C12.075 2.89692 12.1969 2.95317 12.2531 3.0188C12.3187 3.08442 12.4125 3.37505 12.45 3.6563C12.4969 3.93755 12.6187 4.34067 12.7125 4.53755C12.8156 4.7438 13.0781 5.07192 13.3125 5.2688C13.6125 5.5313 13.8844 5.66255 14.25 5.73755C14.5594 5.7938 14.8312 5.91567 14.9344 6.03755C15.075 6.2063 15.075 6.26255 14.9812 6.41255C14.9062 6.51567 14.5875 6.64692 14.2031 6.75005C13.6312 6.89067 13.4906 6.97505 13.125 7.3688C12.8531 7.6688 12.6562 7.97817 12.5906 8.25005C12.525 8.48442 12.4594 8.8313 12.4312 9.02817C12.3937 9.27192 12.3094 9.41255 12.1406 9.48755C11.9437 9.59067 11.8875 9.5813 11.7469 9.45005C11.6531 9.36567 11.55 9.07505 11.5031 8.7938C11.4656 8.52192 11.3156 8.0813 11.175 7.82817C11.0062 7.5188 10.7625 7.2563 10.4531 7.05005C10.1812 6.8813 9.80624 6.72192 9.56249 6.68442C9.32811 6.6563 9.08436 6.5813 9.01874 6.52505C8.95311 6.4688 8.89686 6.33755 8.89686 6.23442C8.89686 6.1313 8.95311 6.00005 9.01874 5.93442C9.08436 5.87817 9.34686 5.7938 9.60936 5.7563C9.88124 5.70942 10.2469 5.5688 10.4906 5.40005C10.7344 5.2313 11.0156 4.91255 11.1656 4.64067C11.3156 4.37817 11.4562 3.9563 11.4937 3.70317C11.5312 3.44067 11.625 3.15942 11.7 3.06567C11.775 2.9813 11.9062 2.9063 11.9906 2.9063ZM32.4375 3.75005C32.7187 3.75005 33.2062 3.81567 33.5156 3.89067C33.825 3.97505 34.2656 4.15317 34.5 4.2938C34.7344 4.42505 36.675 6.0563 38.8125 7.90317C40.95 9.75942 43.0125 11.5782 43.3781 11.9438C43.8656 12.4125 44.1469 12.7875 44.3437 13.2188C44.5406 13.65 44.6437 14.0344 44.6812 14.5313C44.7281 15.0375 44.7 15.4032 44.5875 15.8438C44.5031 16.1813 44.3156 16.6407 44.1844 16.875C44.0437 17.1094 43.7156 17.5032 43.4625 17.7563C43.0594 18.1407 42.45 18.4782 39.4687 19.9407C37.5375 20.8875 35.7375 21.7125 35.4844 21.7688C35.2219 21.825 34.8656 21.8438 34.6875 21.8157C34.3594 21.7594 34.3406 21.7782 22.7062 33.1219C14.0625 41.55 10.9125 44.5594 10.5187 44.7844C10.0875 45.0282 9.88124 45.0938 9.44061 45.0938C9.06561 45.0938 8.77499 45.0282 8.45624 44.8688C8.21249 44.7469 7.87499 44.5032 7.69686 44.3344C7.52811 44.1563 7.29374 43.8469 7.19061 43.6407C7.04999 43.3688 6.99374 43.0782 6.99374 42.6094C6.99374 42.0844 7.03124 41.8688 7.22811 41.5313C7.34999 41.2969 11.7469 35.2688 26.5219 15.1407L26.4187 13.5469L27.6 9.93755C28.2562 7.95005 28.8656 6.15942 28.9687 5.95317C29.0625 5.74692 29.3437 5.35317 29.5969 5.07192C29.8406 4.80005 30.2344 4.46255 30.4687 4.3313C30.7031 4.19067 31.125 4.01255 31.4062 3.9188C31.6875 3.83442 32.1562 3.75942 32.4375 3.75005ZM10.9875 6.23442L11.9531 7.27505L12.9844 6.22505L11.925 5.1938L10.9875 6.23442ZM30.7312 5.2313C30.5437 5.37192 30.2906 5.6063 30.1594 5.76567C30.0281 5.91567 29.8594 6.1688 29.7844 6.32817C29.7094 6.47817 29.175 8.01567 28.6031 9.75005C28.0406 11.475 27.5062 13.1438 27.4125 13.4532C27.2906 13.9032 27.2812 14.0907 27.3562 14.4375C27.4219 14.6813 27.6094 15.0282 27.8156 15.2719C28.0031 15.4969 28.275 15.7594 28.3969 15.8532L28.6312 16.0125C29.7937 13.0313 30.1875 12.1125 30.2625 12.0563C30.3469 11.9813 30.4594 11.9813 30.6375 12.0469C30.8 12.1094 30.8906 12.2188 30.9094 12.375C30.9187 12.5063 30.5719 13.5094 30.1406 14.625L29.3625 16.6407C30.1781 17.3907 30.4406 17.6157 30.4594 17.625C30.4875 17.625 31.3031 16.725 32.2687 15.6094C33.5719 14.1094 34.0781 13.5938 34.2375 13.5938C34.35 13.5844 34.5 13.6407 34.5656 13.7063C34.6312 13.7719 34.6875 13.9125 34.6875 14.0157C34.6875 14.1188 33.9844 15.0094 32.9906 16.1719C32.0531 17.25 31.2656 18.1688 31.2469 18.2063C31.2281 18.2438 31.3687 18.4125 31.5562 18.5813C31.7437 18.75 31.9969 18.9657 32.1187 19.05C32.3344 19.2094 32.3625 19.2 34.3031 18.1407C35.5969 17.4282 36.3375 17.0719 36.4594 17.1094C36.5625 17.1282 36.6937 17.2407 36.7406 17.3438C36.7969 17.4563 36.8062 17.5969 36.7594 17.6907C36.7125 17.7844 35.8781 18.3 34.9031 18.8344C33.9281 19.3688 33.1125 19.8282 33.0844 19.8469C33.0656 19.8657 33.2344 20.0438 33.4594 20.25C33.6937 20.4469 34.05 20.6813 34.2562 20.7657C34.5 20.8688 34.8094 20.9063 35.1 20.8876C35.4844 20.8594 36.2344 20.5219 38.9906 19.1625C41.1281 18.1125 42.5531 17.3438 42.7875 17.1375C42.9937 16.95 43.2937 16.575 43.4437 16.2938C43.6687 15.8907 43.725 15.6563 43.7531 15.0469C43.7812 14.4469 43.7531 14.1938 43.5937 13.7813C43.4906 13.4907 43.2469 13.0875 43.05 12.8719C42.8531 12.6469 40.8187 10.8469 38.5219 8.85005C35.4469 6.1688 34.2094 5.1563 33.7875 4.95942C33.3187 4.72505 33.1125 4.68755 32.5219 4.68755C32.1375 4.69692 31.65 4.76255 31.4437 4.83755C31.2375 4.91255 30.9187 5.09067 30.7312 5.2313ZM23.6625 20.6157C23.6625 20.6719 24.9094 21.7875 26.4281 23.1L29.1937 25.4907C31.7437 23.0344 32.6906 22.1157 32.9437 21.8532L33.4125 21.375C32.8312 20.8875 31.425 19.6594 29.8969 18.3375C28.3781 17.0157 27.1125 15.9375 27.075 15.9375C27.0469 15.9375 26.2687 16.9688 25.3406 18.225C24.4219 19.4907 23.6625 20.5688 23.6625 20.6157ZM22.3031 22.4063C23.3625 23.3344 24.5531 24.3657 25.6312 25.3032C26.7187 26.2407 27.6281 27 27.6469 27C27.675 27 27.8906 26.8125 28.1156 26.5782L28.5375 26.1469C28.1812 25.8094 26.9437 24.7407 25.5656 23.5407C24.1875 22.35 23.0437 21.375 23.0344 21.375C23.0156 21.375 22.8469 21.6094 22.6594 21.8907L22.3031 22.4063ZM21.4781 23.5032C21.3281 23.7 18.2437 27.9094 14.6156 32.8594C10.9875 37.8094 7.97811 41.9907 7.93124 42.1407C7.87499 42.3 7.85624 42.5907 7.87499 42.7969C7.90311 43.0219 8.03436 43.3219 8.19374 43.5376C8.35311 43.7438 8.60624 43.9688 8.77499 44.0344C8.94374 44.1001 9.23436 44.1563 9.41249 44.1563C9.59061 44.1563 9.87186 44.1001 10.0406 44.0251C10.2187 43.9501 13.7812 40.5469 18.6187 35.8219C23.175 31.3876 26.8969 27.7219 26.8969 27.6844C26.8969 27.6376 25.875 26.7188 24.6281 25.6313C23.3719 24.5438 22.2187 23.5407 22.05 23.4L21.7594 23.1563L21.4781 23.5032ZM7.52811 12.375C7.58436 12.375 7.67811 12.4032 7.74374 12.4407C7.80936 12.4782 7.93124 12.8625 8.00624 13.2844C8.08124 13.7063 8.25936 14.2969 8.39999 14.5969C8.54061 14.8969 8.84061 15.3282 9.07499 15.5532C9.30936 15.7875 9.69374 16.0782 9.91874 16.1907C10.1531 16.3032 10.6219 16.4438 10.95 16.5C11.2875 16.5469 11.6156 16.6407 11.6812 16.7063C11.7469 16.7719 11.8031 16.8938 11.8031 16.9875C11.8031 17.0813 11.7375 17.2032 11.6719 17.2688C11.6062 17.3344 11.325 17.4188 11.0437 17.4563C10.7625 17.4938 10.3219 17.625 10.0594 17.7469C9.80624 17.8594 9.39374 18.1407 9.14061 18.375C8.87811 18.6094 8.56874 19.0313 8.40936 19.35C8.24999 19.6782 8.09061 20.2219 8.02499 20.6157C7.96874 21.0094 7.87499 21.375 7.81874 21.4407C7.76249 21.5157 7.63124 21.5625 7.52811 21.5625C7.42499 21.5625 7.29374 21.5157 7.23749 21.4407C7.18124 21.375 7.07811 21.0094 7.02186 20.6157C6.95624 20.2313 6.80624 19.7063 6.68436 19.4438C6.56249 19.1907 6.28124 18.7782 6.05624 18.525C5.81249 18.2438 5.43749 17.9625 5.09061 17.7938C4.78124 17.6438 4.27499 17.4938 3.97499 17.4563C3.47811 17.3907 3.40311 17.3532 3.31874 17.1282C3.24374 16.9313 3.25311 16.8375 3.35624 16.725C3.44061 16.65 3.74999 16.5469 4.05936 16.5094C4.36874 16.4625 4.84686 16.3125 5.11874 16.1813C5.39061 16.0407 5.78436 15.75 5.99999 15.5344C6.21561 15.3188 6.50624 14.8782 6.65624 14.5688C6.80624 14.2594 6.97499 13.6969 7.03124 13.3032C7.08749 12.8719 7.19061 12.5625 7.28436 12.4875C7.36874 12.4219 7.47186 12.375 7.52811 12.375ZM6.52499 16.2563C6.29999 16.4625 5.99061 16.725 5.84061 16.8282L5.55936 17.025C5.99999 17.2594 6.32811 17.5219 6.58124 17.775C6.83436 18.0282 7.13436 18.4125 7.26561 18.6282C7.38749 18.8438 7.50936 19.0219 7.52811 19.0219C7.55624 19.0219 7.64999 18.8907 7.73436 18.7219C7.81874 18.5532 8.01561 18.2532 8.17499 18.0563C8.33436 17.8594 8.69061 17.5313 8.96249 17.325L9.44999 16.9594C8.98124 16.6875 8.61561 16.3594 8.34374 16.0594C8.06249 15.7594 7.78124 15.3938 7.70624 15.2532C7.63124 15.1125 7.55624 14.9907 7.53749 14.9907C7.51874 14.9907 7.37811 15.1969 7.21874 15.4407C7.06874 15.6844 6.74999 16.05 6.52499 16.2563ZM38.5031 30.0844C38.5875 30.0844 38.7281 30.1594 38.8125 30.2532C38.8969 30.3469 38.9812 30.6657 39.0094 31.0219C39.0562 31.4532 39.1687 31.8375 39.3937 32.2875C39.6094 32.7376 39.8812 33.0938 40.2187 33.4032C40.5 33.6469 40.9406 33.9282 41.2125 34.0313C41.4844 34.1344 41.8312 34.2094 41.9812 34.2094C42.1406 34.2094 42.375 34.2563 42.4969 34.3032C42.6656 34.3782 42.7312 34.4719 42.7312 34.6594C42.7406 34.8001 42.6844 34.9688 42.6187 35.0344C42.5625 35.1001 42.4125 35.1469 42.2906 35.1469C42.1781 35.1469 41.8594 35.2032 41.5875 35.2594C41.3156 35.3251 40.8656 35.5313 40.575 35.7188C40.2937 35.9063 39.9 36.2907 39.7125 36.5719C39.5156 36.8438 39.2719 37.3407 39.1687 37.6594C39.0656 37.9782 38.9812 38.3907 38.9812 38.5688C38.9812 38.7563 38.9437 38.9813 38.8875 39.0844C38.825 39.2094 38.7 39.2719 38.5125 39.2719C38.3437 39.2719 38.2031 39.2157 38.1562 39.1126C38.1094 39.0188 38.0437 38.6719 38.0156 38.3344C37.9781 37.9594 37.8469 37.5188 37.6781 37.1626C37.5281 36.8532 37.2187 36.4032 36.975 36.1594C36.7406 35.9157 36.3281 35.6063 36.0562 35.4844C35.7844 35.3532 35.3344 35.2219 35.0437 35.1844C34.7625 35.1563 34.4719 35.0813 34.4062 35.0251C34.3406 34.9594 34.2937 34.8001 34.2937 34.6594C34.2937 34.4719 34.3594 34.3782 34.5281 34.3032C34.6594 34.2563 34.8937 34.2094 35.0437 34.2094C35.2031 34.2094 35.55 34.1344 35.8219 34.0313C36.0937 33.9282 36.5344 33.6469 36.8156 33.4032C37.1531 33.0938 37.425 32.7376 37.6406 32.2875C37.8656 31.8375 37.9781 31.4532 38.0156 31.0219C38.0437 30.6844 38.1375 30.3469 38.2125 30.2532C38.2875 30.1594 38.4187 30.0844 38.5031 30.0844ZM38.0156 33.4407C37.7906 33.7407 37.3687 34.1438 37.0781 34.35L36.5531 34.725C37.1625 35.1094 37.5187 35.4094 37.7437 35.6532C37.9594 35.8876 38.2125 36.2344 38.3062 36.4219C38.3906 36.6001 38.4937 36.75 38.5125 36.75C38.5406 36.75 38.6344 36.6001 38.7281 36.4219C38.8125 36.2344 39.0656 35.8876 39.2906 35.6532C39.5062 35.4094 39.8625 35.1094 40.0875 34.9688L40.4812 34.725C39.6656 34.1438 39.2437 33.7407 39.0187 33.4407C38.7937 33.1407 38.6062 32.8594 38.6062 32.8032C38.6062 32.7563 38.5687 32.7094 38.5125 32.7094C38.4656 32.7094 38.4187 32.7563 38.4187 32.8032C38.4187 32.8594 38.2406 33.1407 38.0156 33.4407Z" fill="black" stroke="black" stroke-width="1.5"/>
</svg>
