<svg width="48" height="48" viewBox="0 0 48 48" fill="none" xmlns="http://www.w3.org/2000/svg">
<g clip-path="url(#clip0_580_15682)">
<path fill-rule="evenodd" clip-rule="evenodd" d="M18 22C16.9 22 16 22.9 16 24C16 25.1 16.9 26 18 26C19.1 26 20 25.1 20 24C20 22.9 19.1 22 18 22ZM30 22C28.9 22 28 22.9 28 24C28 25.1 28.9 26 30 26C31.1 26 32 25.1 32 24C32 22.9 31.1 22 30 22ZM22 24C22 22.9 22.9 22 24 22C25.1 22 26 22.9 26 24C26 25.1 25.1 26 24 26C22.9 26 22 25.1 22 24Z" fill="#1C1B1F"/>
</g>
<defs>
<clipPath id="clip0_580_15682">
<rect x="4" y="4" width="40" height="40" rx="20" fill="white"/>
</clipPath>
</defs>
</svg>
