<svg width="49" height="48" viewBox="0 0 49 48" fill="none" xmlns="http://www.w3.org/2000/svg">
<path d="M10.5 40V36H14.5V28L2.5 10H30.5L18.5 28V36H22.5V40H10.5ZM12.3 18H20.7L23.5 14H9.5L12.3 18ZM32.5 40C30.8333 40 29.4167 39.4167 28.25 38.25C27.0833 37.0833 26.5 35.6667 26.5 34C26.5 32.3333 27.0833 30.9167 28.25 29.75C29.4167 28.5833 30.8333 28 32.5 28C32.8667 28 33.2167 28.025 33.55 28.075C33.8833 28.125 34.2 28.2333 34.5 28.4V10H44.5V16H38.5V34C38.5 35.6667 37.9167 37.0833 36.75 38.25C35.5833 39.4167 34.1667 40 32.5 40Z" fill="black"/>
</svg>
