<svg width="49" height="48" viewBox="0 0 49 48" fill="none" xmlns="http://www.w3.org/2000/svg">
<path d="M9.35965 40.9846L7.37315 38.9982L27.5154 18.8962C26.8706 17.3937 26.7494 15.8363 27.152 14.2241C27.5546 12.612 28.4385 11.1334 29.8039 9.78857C31.2693 8.3232 33.0164 7.37833 35.0452 6.95397C37.0741 6.5296 38.7487 6.97447 40.0692 8.28857C41.3833 9.60267 41.8282 11.2757 41.4038 13.3078C40.9795 15.3398 40.0346 17.0885 38.5692 18.5539C37.218 19.9193 35.7363 20.8017 34.1241 21.201C32.5119 21.6004 30.9577 21.4808 29.4616 20.8423L26.3442 24.0001L41.3423 38.9982L39.3962 40.9846L24.3577 26.0462L9.35965 40.9846ZM15.2943 24.202L9.6462 18.5539C8.03723 16.9449 7.20135 15.0411 7.13855 12.8424C7.07572 10.6437 7.79557 8.70139 9.2981 7.01552L20.8788 18.6578L15.2943 24.202Z" fill="#17171A"/>
</svg>
