<svg width="56" height="56" viewBox="0 0 56 56" fill="none" xmlns="http://www.w3.org/2000/svg">
<rect x="1" y="1" width="54" height="54" rx="27" stroke="white" stroke-width="2"/>
<path d="M22.0968 19.8333C22.0965 20.4521 21.8504 21.0455 21.4126 21.4829C20.9748 21.9202 20.3812 22.1658 19.7623 22.1654C19.1435 22.1651 18.5501 21.919 18.1128 21.4812C17.6754 21.0434 17.4299 20.4498 17.4302 19.8309C17.4305 19.2121 17.6766 18.6187 18.1144 18.1814C18.5522 17.744 19.1458 17.4985 19.7647 17.4988C20.3835 17.4991 20.9769 17.7452 21.4143 18.183C21.8516 18.6208 22.0972 19.2144 22.0968 19.8333ZM22.1668 23.8933H17.5002V38.4999H22.1668V23.8933ZM29.5402 23.8933H24.8968V38.4999H29.4935V30.8349C29.4935 26.5649 35.0585 26.1683 35.0585 30.8349V38.4999H39.6668V29.2483C39.6668 22.0499 31.4302 22.3183 29.4935 25.8533L29.5402 23.8933Z" fill="white"/>
</svg>
