<svg width="56" height="56" viewBox="0 0 56 56" fill="none" xmlns="http://www.w3.org/2000/svg">
<rect x="1" y="1" width="54" height="54" rx="27" stroke="white" stroke-width="2"/>
<g clip-path="url(#clip0_955_6469)">
<path d="M23.0299 16.084C21.7529 16.144 20.8809 16.348 20.1199 16.647C19.3192 16.9494 18.5943 17.4231 17.9959 18.035C17.3866 18.6352 16.9156 19.3611 16.6159 20.162C16.3209 20.926 16.1199 21.8 16.0639 23.076C16.0079 24.354 15.9949 24.764 16.0009 28.023C16.0079 31.282 16.0219 31.69 16.0839 32.97C16.1449 34.247 16.3479 35.119 16.6469 35.881C16.9549 36.67 17.3669 37.338 18.0349 38.004C18.6355 38.6137 19.3621 39.0847 20.1639 39.384C20.9269 39.679 21.7999 39.88 23.0769 39.936C24.3549 39.992 24.7659 40.005 28.0239 39.999C31.2809 39.992 31.6918 39.978 32.9708 39.917C34.2509 39.857 35.1178 39.652 35.8808 39.354C36.6811 39.0513 37.4056 38.5776 38.0038 37.966C38.6133 37.3652 39.0842 36.6386 39.3839 35.837C39.6789 35.074 39.8798 34.201 39.9348 32.925C39.9908 31.645 40.0048 31.235 39.9978 27.977C39.9918 24.719 39.9778 24.31 39.9168 23.03C39.8568 21.75 39.6528 20.882 39.3528 20.119C39.0501 19.3191 38.5768 18.5946 37.9658 17.996C37.3658 17.3861 36.6395 16.9151 35.8378 16.616C35.0738 16.322 34.2018 16.12 32.9238 16.066C31.6468 16.009 31.2359 15.994 27.9769 16C24.7179 16.008 24.3099 16.021 23.0299 16.084ZM23.1699 37.777C21.9999 37.727 21.3649 37.532 20.9419 37.369C20.4204 37.1772 19.9482 36.8714 19.5598 36.474C19.1601 36.0882 18.8524 35.6172 18.6599 35.096C18.4949 34.673 18.2968 34.038 18.2429 32.868C18.1829 31.604 18.1709 31.224 18.1629 28.02C18.1569 24.816 18.1688 24.437 18.2239 23.172C18.2738 22.003 18.4699 21.367 18.6319 20.944C18.8479 20.383 19.1089 19.984 19.5268 19.562C19.9132 19.1624 20.3845 18.8548 20.9059 18.662C21.3289 18.497 21.9629 18.301 23.1329 18.245C24.3979 18.185 24.7768 18.173 27.9809 18.165C31.1839 18.159 31.5638 18.171 32.8308 18.227C33.9988 18.277 34.6348 18.471 35.0578 18.635C35.6178 18.851 36.0178 19.11 36.4398 19.53C36.8608 19.95 37.1208 20.347 37.3398 20.908C37.5049 21.33 37.7018 21.964 37.7568 23.135C37.8168 24.4 37.8308 24.78 37.8368 27.983C37.8418 31.186 37.8308 31.566 37.7758 32.831C37.7248 34.001 37.5308 34.636 37.3678 35.061C37.1518 35.621 36.8909 36.021 36.4718 36.441C36.0858 36.8405 35.6149 37.1481 35.0938 37.341C34.6718 37.506 34.0358 37.703 32.8678 37.759C31.6018 37.819 31.2228 37.831 28.0178 37.838C24.8139 37.845 24.4359 37.831 23.1699 37.777ZM32.9528 21.586C32.9532 21.8709 33.0381 22.1492 33.1967 22.3858C33.3553 22.6224 33.5805 22.8067 33.8439 22.9153C34.1072 23.0238 34.3968 23.0519 34.6761 22.9959C34.9554 22.9398 35.2118 22.8022 35.4128 22.6005C35.6139 22.3987 35.7506 22.1418 35.8057 21.8624C35.8608 21.5829 35.8317 21.2934 35.7222 21.0304C35.6127 20.7674 35.4276 20.5429 35.1905 20.3851C34.9533 20.2273 34.6747 20.1434 34.3898 20.144C34.0081 20.1448 33.6423 20.2971 33.3728 20.5675C33.1034 20.8379 32.9523 21.2043 32.9528 21.586ZM21.8389 28.012C21.842 29.6461 22.4942 31.2121 23.652 32.3653C24.8098 33.5186 26.3782 34.1647 28.0124 34.1615C29.6465 34.1583 31.2124 33.5061 32.3657 32.3484C33.5189 31.1906 34.165 29.6221 34.1618 27.988C34.1383 26.3674 33.4771 24.8212 32.3216 23.6846C31.1661 22.548 29.6093 21.9124 27.9885 21.9156C26.3677 21.9188 24.8134 22.5604 23.6623 23.7015C22.5112 24.8426 21.8561 26.3913 21.8389 28.012ZM23.9999 28.008C23.9983 27.2169 24.2313 26.4431 24.6695 25.7844C25.1077 25.1257 25.7314 24.6118 26.4617 24.3076C27.192 24.0034 27.9961 23.9225 28.7724 24.0753C29.5486 24.2281 30.2621 24.6076 30.8226 25.1659C31.3831 25.7242 31.7655 26.4362 31.9214 27.2118C32.0773 27.9874 31.9997 28.7918 31.6984 29.5234C31.3971 30.2549 30.8857 30.8806 30.2288 31.3214C29.5719 31.7623 28.799 31.9984 28.0079 32C27.4826 32.0011 26.9622 31.8986 26.4765 31.6986C25.9908 31.4985 25.5493 31.2048 25.1771 30.8341C24.8049 30.4634 24.5094 30.023 24.3074 29.5381C24.1054 29.0532 24.0009 28.5333 23.9999 28.008Z" fill="white"/>
</g>
<defs>
<clipPath id="clip0_955_6469">
<rect width="24" height="24" fill="white" transform="translate(16 16)"/>
</clipPath>
</defs>
</svg>
